<svg width="54" height="54" viewBox="0 0 54 54" fill="none" xmlns="http://www.w3.org/2000/svg">
<path d="M0.5 8C0.5 3.85786 3.85786 0.5 8 0.5H46C50.1421 0.5 53.5 3.85786 53.5 8V46C53.5 50.1421 50.1421 53.5 46 53.5H8C3.85786 53.5 0.5 50.1421 0.5 46V8Z" fill="white"/>
<path d="M0.5 8C0.5 3.85786 3.85786 0.5 8 0.5H46C50.1421 0.5 53.5 3.85786 53.5 8V46C53.5 50.1421 50.1421 53.5 46 53.5H8C3.85786 53.5 0.5 50.1421 0.5 46V8Z" stroke="#EAEAEA"/>
<path d="M28.0043 17.4151C27.6691 17.1401 27.2876 17.0052 26.87 17.0052H21.8944C21.451 17.0052 21.0643 17.109 20.7291 17.3217C20.394 17.5293 20.1517 17.8354 19.997 18.2402L12 35.8829H17.6097L19.4453 31.4514H25.5242L26.0141 35.8829H31.4227L28.6024 18.4322C28.5457 18.0326 28.3497 17.6953 28.0146 17.4203L28.0043 17.4151ZM21.0179 27.6427L23.9723 20.8036C23.9877 20.9229 25.1014 27.6427 25.1014 27.6427H21.0179Z" fill="#FD7E14"/>
<path d="M35.6971 17L32.9077 35.8777H38.3164L41.1058 17H35.6971Z" fill="#FD7E14"/>
</svg>
