<svg width="68" height="29" viewBox="0 0 68 29" fill="none" xmlns="http://www.w3.org/2000/svg">
<path d="M0 8C0 3.58172 3.58172 0 8 0H60C64.4183 0 68 3.58172 68 8V21C68 25.4183 64.4183 29 60 29H8C3.58172 29 0 25.4183 0 21V8Z" fill="#FAFAFA"/>
<path d="M28.25 5.5H16.25C16.0511 5.5 15.8603 5.57902 15.7197 5.71967C15.579 5.86032 15.5 6.05109 15.5 6.25V10H11.75C11.5511 10 11.3603 10.079 11.2197 10.2197C11.079 10.3603 11 10.5511 11 10.75V22.75C11 22.9489 11.079 23.1397 11.2197 23.2803C11.3603 23.421 11.5511 23.5 11.75 23.5H23.75C23.9489 23.5 24.1397 23.421 24.2803 23.2803C24.421 23.1397 24.5 22.9489 24.5 22.75V19H28.25C28.4489 19 28.6397 18.921 28.7803 18.7803C28.921 18.6397 29 18.4489 29 18.25V6.25C29 6.05109 28.921 5.86032 28.7803 5.71967C28.6397 5.57902 28.4489 5.5 28.25 5.5ZM23 22H12.5V11.5H23V22ZM27.5 17.5H24.5V10.75C24.5 10.5511 24.421 10.3603 24.2803 10.2197C24.1397 10.079 23.9489 10 23.75 10H17V7H27.5V17.5Z" fill="#9A9A9A"/>
<path d="M38.924 17.454C39.012 17.454 39.09 17.488 39.158 17.556L39.794 18.246C39.442 18.682 39.008 19.016 38.492 19.248C37.98 19.48 37.364 19.596 36.644 19.596C36 19.596 35.42 19.486 34.904 19.266C34.392 19.046 33.954 18.74 33.59 18.348C33.226 17.956 32.946 17.488 32.75 16.944C32.558 16.4 32.462 15.806 32.462 15.162C32.462 14.51 32.566 13.914 32.774 13.374C32.982 12.83 33.274 12.362 33.65 11.97C34.03 11.578 34.482 11.274 35.006 11.058C35.53 10.838 36.11 10.728 36.746 10.728C37.378 10.728 37.938 10.832 38.426 11.04C38.918 11.248 39.336 11.52 39.68 11.856L39.14 12.606C39.108 12.654 39.066 12.696 39.014 12.732C38.966 12.768 38.898 12.786 38.81 12.786C38.75 12.786 38.688 12.77 38.624 12.738C38.56 12.702 38.49 12.66 38.414 12.612C38.338 12.56 38.25 12.504 38.15 12.444C38.05 12.384 37.934 12.33 37.802 12.282C37.67 12.23 37.516 12.188 37.34 12.156C37.168 12.12 36.968 12.102 36.74 12.102C36.352 12.102 35.996 12.172 35.672 12.312C35.352 12.448 35.076 12.648 34.844 12.912C34.612 13.172 34.432 13.492 34.304 13.872C34.176 14.248 34.112 14.678 34.112 15.162C34.112 15.65 34.18 16.084 34.316 16.464C34.456 16.844 34.644 17.164 34.88 17.424C35.116 17.684 35.394 17.884 35.714 18.024C36.034 18.16 36.378 18.228 36.746 18.228C36.966 18.228 37.164 18.216 37.34 18.192C37.52 18.168 37.684 18.13 37.832 18.078C37.984 18.026 38.126 17.96 38.258 17.88C38.394 17.796 38.528 17.694 38.66 17.574C38.7 17.538 38.742 17.51 38.786 17.49C38.83 17.466 38.876 17.454 38.924 17.454ZM43.3207 13.248C43.7767 13.248 44.1907 13.322 44.5627 13.47C44.9387 13.618 45.2587 13.828 45.5227 14.1C45.7907 14.372 45.9967 14.704 46.1407 15.096C46.2847 15.488 46.3567 15.926 46.3567 16.41C46.3567 16.898 46.2847 17.338 46.1407 17.73C45.9967 18.122 45.7907 18.456 45.5227 18.732C45.2587 19.008 44.9387 19.22 44.5627 19.368C44.1907 19.516 43.7767 19.59 43.3207 19.59C42.8607 19.59 42.4427 19.516 42.0667 19.368C41.6907 19.22 41.3687 19.008 41.1007 18.732C40.8367 18.456 40.6307 18.122 40.4827 17.73C40.3387 17.338 40.2667 16.898 40.2667 16.41C40.2667 15.926 40.3387 15.488 40.4827 15.096C40.6307 14.704 40.8367 14.372 41.1007 14.1C41.3687 13.828 41.6907 13.618 42.0667 13.47C42.4427 13.322 42.8607 13.248 43.3207 13.248ZM43.3207 18.45C43.8327 18.45 44.2107 18.278 44.4547 17.934C44.7027 17.59 44.8267 17.086 44.8267 16.422C44.8267 15.758 44.7027 15.252 44.4547 14.904C44.2107 14.556 43.8327 14.382 43.3207 14.382C42.8007 14.382 42.4147 14.558 42.1627 14.91C41.9147 15.258 41.7907 15.762 41.7907 16.422C41.7907 17.082 41.9147 17.586 42.1627 17.934C42.4147 18.278 42.8007 18.45 43.3207 18.45ZM49.0293 17.904C49.1973 18.108 49.3793 18.252 49.5753 18.336C49.7753 18.42 49.9913 18.462 50.2233 18.462C50.4473 18.462 50.6493 18.42 50.8293 18.336C51.0093 18.252 51.1613 18.124 51.2853 17.952C51.4133 17.78 51.5113 17.564 51.5793 17.304C51.6473 17.04 51.6813 16.73 51.6813 16.374C51.6813 16.014 51.6513 15.71 51.5913 15.462C51.5353 15.21 51.4533 15.006 51.3453 14.85C51.2373 14.694 51.1053 14.58 50.9493 14.508C50.7973 14.436 50.6233 14.4 50.4273 14.4C50.1193 14.4 49.8573 14.466 49.6413 14.598C49.4253 14.726 49.2213 14.908 49.0293 15.144V17.904ZM48.9513 14.184C49.2033 13.9 49.4893 13.67 49.8093 13.494C50.1293 13.318 50.5053 13.23 50.9373 13.23C51.2733 13.23 51.5793 13.3 51.8553 13.44C52.1353 13.58 52.3753 13.784 52.5753 14.052C52.7793 14.316 52.9353 14.644 53.0433 15.036C53.1553 15.424 53.2113 15.87 53.2113 16.374C53.2113 16.834 53.1493 17.26 53.0253 17.652C52.9013 18.044 52.7233 18.384 52.4913 18.672C52.2633 18.96 51.9853 19.186 51.6573 19.35C51.3333 19.51 50.9693 19.59 50.5653 19.59C50.2213 19.59 49.9273 19.538 49.6833 19.434C49.4393 19.326 49.2213 19.178 49.0293 18.99V21.51H47.5473V13.344H48.4533C48.6453 13.344 48.7713 13.434 48.8313 13.614L48.9513 14.184ZM59.8438 13.344L56.4898 21.192C56.4458 21.296 56.3878 21.374 56.3158 21.426C56.2478 21.482 56.1418 21.51 55.9978 21.51H54.8938L56.0458 19.038L53.5558 13.344H54.8578C54.9738 13.344 55.0638 13.372 55.1278 13.428C55.1958 13.484 55.2458 13.548 55.2778 13.62L56.5858 16.812C56.6298 16.92 56.6658 17.028 56.6938 17.136C56.7258 17.244 56.7558 17.354 56.7838 17.466C56.8198 17.354 56.8558 17.244 56.8918 17.136C56.9278 17.024 56.9678 16.914 57.0118 16.806L58.2478 13.62C58.2798 13.54 58.3318 13.474 58.4038 13.422C58.4798 13.37 58.5638 13.344 58.6558 13.344H59.8438Z" fill="#9A9A9A"/>
</svg>
