<svg width="30" height="30" viewBox="0 0 30 30" fill="none" xmlns="http://www.w3.org/2000/svg">
<path d="M0 8C0 3.58172 3.58172 0 8 0H22C26.4183 0 30 3.58172 30 8V22C30 26.4183 26.4183 30 22 30H8C3.58172 30 0 26.4183 0 22V8Z" fill="#FD7E14"/>
<path d="M22.27 8.32998C20.94 7.70998 19.5 7.25998 18 6.99998C17.9868 6.99956 17.9738 7.00203 17.9617 7.00722C17.9496 7.0124 17.9388 7.02017 17.93 7.02999C17.75 7.35999 17.54 7.78998 17.4 8.11998C15.809 7.87998 14.191 7.87998 12.6 8.11998C12.46 7.77998 12.25 7.35999 12.06 7.02999C12.05 7.00999 12.02 6.99998 11.99 6.99998C10.49 7.25998 9.06 7.70998 7.72 8.32998C7.71 8.32998 7.7 8.33998 7.69 8.34998C4.97 12.42 4.22 16.38 4.59 20.3C4.59 20.32 4.6 20.34 4.62 20.35C6.42 21.67 8.15 22.47 9.86 23C9.89 23.01 9.91999 23 9.93 22.98C10.33 22.43 10.69 21.85 11 21.24C11.02 21.2 11 21.16 10.96 21.15C10.39 20.93 9.85 20.67 9.32 20.37C9.28 20.35 9.27999 20.29 9.31 20.26C9.42 20.18 9.52999 20.09 9.64 20.01C9.66 19.99 9.69 19.99 9.71 20C13.15 21.57 16.86 21.57 20.26 20C20.28 19.99 20.31 19.99 20.33 20.01C20.44 20.1 20.55 20.18 20.66 20.27C20.7 20.3 20.7 20.36 20.65 20.38C20.13 20.69 19.58 20.94 19.01 21.16C18.97 21.17 18.96 21.22 18.97 21.25C19.29 21.86 19.65 22.44 20.04 22.99C20.07 23 20.1 23.01 20.13 23C21.85 22.47 23.58 21.67 25.38 20.35C25.4 20.34 25.41 20.32 25.41 20.3C25.85 15.77 24.68 11.84 22.31 8.34998C22.3 8.33998 22.29 8.32998 22.27 8.32998ZM11.52 17.91C10.49 17.91 9.63 16.96 9.63 15.79C9.63 14.62 10.47 13.67 11.52 13.67C12.58 13.67 13.42 14.63 13.41 15.79C13.41 16.96 12.57 17.91 11.52 17.91ZM18.49 17.91C17.46 17.91 16.6 16.96 16.6 15.79C16.6 14.62 17.44 13.67 18.49 13.67C19.55 13.67 20.39 14.63 20.38 15.79C20.38 16.96 19.55 17.91 18.49 17.91Z" fill="white"/>
</svg>
