<svg width="56" height="56" viewBox="0 0 56 56" fill="none" xmlns="http://www.w3.org/2000/svg">
<path opacity="0.5" d="M28.0001 4.66666C23.3852 4.66666 18.8739 6.03513 15.0368 8.59903C11.1996 11.1629 8.20895 14.8071 6.4429 19.0707C4.67686 23.3343 4.21478 28.0259 5.1151 32.5521C6.01542 37.0783 8.23771 41.2359 11.5009 44.4991C14.7642 47.7624 18.9218 49.9847 23.448 50.885C27.9742 51.7853 32.6658 51.3232 36.9294 49.5572C41.193 47.7911 44.8371 44.8004 47.401 40.9633C49.9649 37.1261 51.3334 32.6149 51.3334 28C51.3334 24.9358 50.7299 21.9016 49.5573 19.0707C48.3847 16.2398 46.6659 13.6675 44.4992 11.5008C42.3325 9.33413 39.7603 7.61541 36.9294 6.4428C34.0984 5.27019 31.0643 4.66666 28.0001 4.66666ZM28.0001 46.6667C24.3082 46.6667 20.6992 45.5719 17.6294 43.5208C14.5597 41.4696 12.1672 38.5543 10.7543 35.1434C9.34151 31.7325 8.97184 27.9793 9.6921 24.3583C10.4124 20.7373 12.1902 17.4112 14.8008 14.8007C17.4113 12.1901 20.7374 10.4123 24.3584 9.692C27.9794 8.97174 31.7326 9.3414 35.1435 10.7542C38.5544 12.1671 41.4697 14.5596 43.5209 17.6293C45.572 20.6991 46.6668 24.3081 46.6668 28C46.6668 32.9507 44.7001 37.6986 41.1994 41.1993C37.6987 44.7 32.9508 46.6667 28.0001 46.6667Z" fill="#FFAA63"/>
<path d="M46.6667 28H51.3333C51.3333 24.9358 50.7298 21.9016 49.5572 19.0707C48.3846 16.2398 46.6659 13.6675 44.4992 11.5008C42.3325 9.33413 39.7602 7.61541 36.9293 6.4428C34.0984 5.27019 31.0642 4.66666 28 4.66666V9.33332C32.9507 9.33332 37.6986 11.3 41.1993 14.8007C44.7 18.3013 46.6667 23.0493 46.6667 28Z" fill="#FD7E14"/>
</svg>
