<svg width="31" height="30" viewBox="0 0 31 30" fill="none" xmlns="http://www.w3.org/2000/svg">
<path d="M0.5 8C0.5 3.58172 4.08172 0 8.5 0H22.5C26.9183 0 30.5 3.58172 30.5 8V22C30.5 26.4183 26.9183 30 22.5 30H8.5C4.08172 30 0.5 26.4183 0.5 22V8Z" fill="#FD7E14"/>
<path d="M15.5 5C14.1868 5 12.8864 5.25866 11.6732 5.7612C10.4599 6.26375 9.35752 7.00035 8.42893 7.92893C6.55357 9.8043 5.5 12.3478 5.5 15C5.5 19.42 8.37 23.17 12.34 24.5C12.84 24.58 13 24.27 13 24V22.31C10.23 22.91 9.64 20.97 9.64 20.97C9.18 19.81 8.53 19.5 8.53 19.5C7.62 18.88 8.6 18.9 8.6 18.9C9.6 18.97 10.13 19.93 10.13 19.93C11 21.45 12.47 21 13.04 20.76C13.13 20.11 13.39 19.67 13.67 19.42C11.45 19.17 9.12 18.31 9.12 14.5C9.12 13.39 9.5 12.5 10.15 11.79C10.05 11.54 9.7 10.5 10.25 9.15C10.25 9.15 11.09 8.88 13 10.17C13.79 9.95 14.65 9.84 15.5 9.84C16.35 9.84 17.21 9.95 18 10.17C19.91 8.88 20.75 9.15 20.75 9.15C21.3 10.5 20.95 11.54 20.85 11.79C21.5 12.5 21.88 13.39 21.88 14.5C21.88 18.32 19.54 19.16 17.31 19.41C17.67 19.72 18 20.33 18 21.26V24C18 24.27 18.16 24.59 18.67 24.5C22.64 23.16 25.5 19.42 25.5 15C25.5 13.6868 25.2413 12.3864 24.7388 11.1732C24.2362 9.95991 23.4997 8.85752 22.5711 7.92893C21.6425 7.00035 20.5401 6.26375 19.3268 5.7612C18.1136 5.25866 16.8132 5 15.5 5Z" fill="white"/>
</svg>
