<svg width="31" height="30" viewBox="0 0 31 30" fill="none" xmlns="http://www.w3.org/2000/svg">
<path d="M0.5 8C0.5 3.58172 4.08172 0 8.5 0H22.5C26.9183 0 30.5 3.58172 30.5 8V22C30.5 26.4183 26.9183 30 22.5 30H8.5C4.08172 30 0.5 26.4183 0.5 22V8Z" fill="#FD7E14"/>
<path d="M22.5 6C23.0304 6 23.5391 6.21071 23.9142 6.58579C24.2893 6.96086 24.5 7.46957 24.5 8V22C24.5 22.5304 24.2893 23.0391 23.9142 23.4142C23.5391 23.7893 23.0304 24 22.5 24H8.5C7.96957 24 7.46086 23.7893 7.08579 23.4142C6.71071 23.0391 6.5 22.5304 6.5 22V8C6.5 7.46957 6.71071 6.96086 7.08579 6.58579C7.46086 6.21071 7.96957 6 8.5 6H22.5ZM22 21.5V16.2C22 15.3354 21.6565 14.5062 21.0452 13.8948C20.4338 13.2835 19.6046 12.94 18.74 12.94C17.89 12.94 16.9 13.46 16.42 14.24V13.13H13.63V21.5H16.42V16.57C16.42 15.8 17.04 15.17 17.81 15.17C18.1813 15.17 18.5374 15.3175 18.7999 15.5801C19.0625 15.8426 19.21 16.1987 19.21 16.57V21.5H22ZM10.38 11.56C10.8256 11.56 11.2529 11.383 11.5679 11.0679C11.883 10.7529 12.06 10.3256 12.06 9.88C12.06 8.95 11.31 8.19 10.38 8.19C9.93178 8.19 9.50193 8.36805 9.18499 8.68499C8.86805 9.00193 8.69 9.43178 8.69 9.88C8.69 10.81 9.45 11.56 10.38 11.56ZM11.77 21.5V13.13H9V21.5H11.77Z" fill="white"/>
</svg>
