<svg width="53" height="53" viewBox="0 0 53 53" fill="none" xmlns="http://www.w3.org/2000/svg">
<path d="M0 8C0 3.58172 3.58172 0 8 0H45C49.4183 0 53 3.58172 53 8V45C53 49.4183 49.4183 53 45 53H8C3.58172 53 0 49.4183 0 45V8Z" fill="#FD7E14"/>
<path d="M16.6667 26.5L15.8614 19.2507C15.6307 17.176 17.7667 15.652 19.6534 16.5467L35.5787 24.0907C37.6121 25.0533 37.6121 27.9467 35.5787 28.9093L19.6534 36.4547C17.7667 37.348 15.6307 35.8253 15.8614 33.7507L16.6667 26.5ZM16.6667 26.5H26.0001" stroke="white" stroke-width="1.5" stroke-linecap="round" stroke-linejoin="round"/>
</svg>
