<?xml version="1.0" encoding="UTF-8"?>
<svg id="Layer_2" xmlns="http://www.w3.org/2000/svg" viewBox="0 0 261.83 67.45">
  <defs>
    <style>
      .cls-1 {
        fill: #231f20;
      }

      .cls-2 {
        fill: #f39120;
      }

      .cls-3 {
        fill: #010101;
      }
    </style>
  </defs>
  <g id="Layer_1-2" data-name="Layer_1">
    <g>
      <path id="Logo_black" class="cls-2" d="M0,6.87c-.01-.25.08-.5.25-.68.18-.18.44-.27.7-.26h14.36c1.23,0,2.46.23,3.59.68,1.1.44,2.1,1.08,2.95,1.88.85.8,1.53,1.76,2,2.8.49,1.09.75,2.26.74,3.44,0,.97-.16,1.94-.51,2.85-.33.86-.81,1.66-1.44,2.36,1.04.9,1.88,1.99,2.47,3.21.6,1.24.91,2.58.91,3.94,0,1.21-.25,2.41-.76,3.53-.49,1.08-1.18,2.08-2.04,2.92-.86.84-1.88,1.52-3.01,2-1.14.49-2.37.74-3.62.74H.95c-.25.01-.5-.06-.69-.21-.19-.17-.28-.42-.26-.66V6.87ZM17.44,26.81c0-.42-.09-.84-.25-1.23-.16-.4-.4-.77-.69-1.09-.3-.32-.66-.59-1.06-.79-.41-.2-.87-.31-1.33-.31h-5.72v6.83h5.72c.46,0,.91-.1,1.32-.29.4-.19.76-.45,1.06-.77.3-.32.54-.69.7-1.09.17-.4.25-.83.25-1.27ZM16.29,14.93c0-.39-.08-.78-.24-1.14-.16-.35-.39-.67-.67-.94-.3-.28-.65-.5-1.04-.64-.42-.16-.87-.24-1.32-.24h-4.64v5.93h4.58c.46,0,.92-.07,1.35-.22.39-.13.75-.34,1.05-.61.29-.27.52-.59.68-.94.17-.38.25-.78.25-1.19ZM57.91,34.78c0,.23-.04.45-.13.66-.08.21-.23.38-.43.5-.15.15-.35.25-.56.29-.18.04-.37.06-.56.06h-4.26c-.25,0-.5-.03-.74-.11-.18-.07-.33-.18-.45-.32-.12-.15-.22-.32-.29-.5-.08-.2-.16-.41-.25-.64l-.28-.92c-.42.39-.86.75-1.33,1.08-.52.36-1.07.68-1.64.95-.62.29-1.26.51-1.93.67-.7.17-1.41.26-2.13.26-1.28,0-2.55-.15-3.78-.47-1.18-.3-2.32-.75-3.37-1.34-1.04-.58-2-1.28-2.84-2.09-.85-.81-1.59-1.72-2.2-2.71-.62-1.01-1.1-2.09-1.42-3.22-.33-1.18-.5-2.39-.5-3.61-.02-1.81.36-3.61,1.1-5.28.71-1.59,1.73-3.03,3.01-4.25,1.28-1.21,2.8-2.18,4.48-2.84,1.75-.69,3.62-1.05,5.52-1.03.84,0,1.68.09,2.5.29.74.18,1.45.44,2.12.78.63.32,1.22.72,1.74,1.18.51.45.97.94,1.36,1.48l.63-1.86c.14-.34.26-.62.36-.83.07-.17.17-.33.31-.47.11-.1.25-.17.4-.2.22-.04.45-.06.67-.05h3.22c.19,0,.38.02.56.06.21.04.41.14.56.29.19.13.34.31.43.51.09.21.13.43.13.65v23.03ZM36.6,23.33c0,.86.14,1.71.44,2.52.27.75.71,1.44,1.27,2.03.55.58,1.23,1.04,1.98,1.36.81.34,1.68.51,2.56.5.92,0,1.84-.16,2.69-.5.81-.32,1.54-.78,2.16-1.36.62-.58,1.11-1.27,1.44-2.04.35-.8.53-1.66.52-2.52,0-.86-.17-1.7-.52-2.49-.34-.77-.82-1.48-1.44-2.09-.62-.6-1.35-1.08-2.16-1.42-.85-.35-1.77-.53-2.69-.52-.89-.01-1.76.17-2.56.52-.76.34-1.43.82-1.98,1.42-.56.61-.99,1.32-1.27,2.09-.3.8-.45,1.64-.44,2.49ZM67.21,28.22c.38.36.8.67,1.27.93.42.24.86.44,1.31.61.36.14.73.25,1.1.34.21.05.43.09.65.1.27,0,.62-.01,1.05-.03.41-.02.82-.08,1.22-.18.37-.09.71-.26,1.01-.5.29-.25.44-.61.42-.98.02-.32-.07-.64-.24-.91-.18-.24-.42-.44-.69-.57-.35-.18-.73-.32-1.11-.42-.44-.12-.94-.27-1.48-.43-1.49-.35-2.93-.88-4.28-1.57-1.01-.53-1.92-1.22-2.67-2.05-.63-.71-1.1-1.55-1.37-2.44-.26-.9-.39-1.83-.39-2.76-.02-1.07.23-2.12.71-3.09.48-.93,1.18-1.74,2.04-2.38.94-.69,2.01-1.21,3.16-1.53,1.33-.38,2.71-.56,4.09-.54.86,0,1.71.07,2.55.21.78.14,1.54.37,2.27.67.75.32,1.45.72,2.11,1.19.73.52,1.41,1.1,2.04,1.73.21.21.35.48.38.77-.03.31-.21.59-.49.77-.56.44-1.1.87-1.61,1.29s-1.04.89-1.59,1.41c-.15.12-.33.21-.52.26-.16.03-.33.03-.5-.01-.16-.04-.32-.11-.45-.2-.15-.1-.28-.21-.39-.35-.46-.5-1.06-.88-1.73-1.07-.59-.18-1.2-.27-1.82-.28-.58-.03-1.17.09-1.69.35-.41.21-.64.63-.58,1.06.01.32.16.62.42.83.28.21.59.37.93.48.38.13.77.23,1.17.3.41.08.79.16,1.14.26,1.21.37,2.41.8,3.57,1.29,1.02.43,1.97,1,2.81,1.71.79.67,1.42,1.5,1.85,2.42.47,1.09.7,2.26.66,3.43.02,1.25-.27,2.49-.86,3.62-.56,1.05-1.36,1.97-2.35,2.68-1.06.75-2.26,1.31-3.54,1.66-1.43.39-2.91.58-4.4.57-.91,0-1.82-.08-2.72-.22-.92-.15-1.82-.39-2.68-.73-.87-.34-1.7-.77-2.47-1.29-.79-.53-1.49-1.18-2.08-1.91-.15-.18-.27-.39-.36-.6-.08-.2-.11-.41-.11-.63,0-.19.05-.38.13-.56.08-.18.21-.33.38-.44l2.79-2.64c.23-.24.58-.35.92-.29.39.16.74.4,1.03.7h0ZM111.17,33.18c-1.25,1.09-2.7,1.97-4.28,2.59-1.6.62-3.31.94-5.04.93-1.92.01-3.82-.34-5.6-1.02-1.72-.66-3.29-1.62-4.63-2.83-1.33-1.22-2.4-2.66-3.16-4.26-.79-1.68-1.19-3.5-1.17-5.34,0-1.18.15-2.35.47-3.49.3-1.1.74-2.16,1.32-3.16.57-.98,1.27-1.89,2.08-2.71.81-.82,1.73-1.53,2.74-2.12,1.03-.59,2.13-1.05,3.29-1.37,1.22-.33,2.48-.5,3.74-.49,1.18,0,2.35.15,3.48.45,1.11.29,2.17.72,3.17,1.27.99.55,1.9,1.2,2.71,1.96.81.75,1.52,1.59,2.12,2.5.59.91,1.05,1.88,1.37,2.9.32,1.03.49,2.1.49,3.18,0,.71-.01,1.29-.03,1.74,0,.38-.12.75-.34,1.07-.25.29-.61.49-1.01.55-.68.12-1.37.17-2.07.15h-15.58c.11.78.41,1.53.88,2.19.41.56.93,1.03,1.53,1.4.57.34,1.19.59,1.84.75.6.14,1.22.22,1.84.23.54,0,1.07-.05,1.6-.15.54-.1,1.07-.24,1.59-.41.49-.16.96-.36,1.41-.59.37-.19.72-.43,1.03-.71.19-.15.39-.28.6-.4.16-.09.34-.13.53-.13.21,0,.41.07.57.18.24.16.46.33.66.53l2.29,2.45c.14.14.24.3.31.48.04.14.07.29.07.44,0,.25-.08.5-.24.71-.16.2-.35.37-.57.52ZM100.77,16.16c-.56,0-1.12.11-1.63.32-.53.22-1.03.5-1.48.85-.46.36-.88.76-1.24,1.21-.35.42-.65.88-.9,1.37h11.05c-.29-.51-.62-1-.98-1.47-.35-.44-.75-.84-1.21-1.19-.47-.35-.99-.62-1.56-.8-.66-.2-1.35-.3-2.04-.29h0ZM118.78,4.18c-.01-.39.11-.78.35-1.11.29-.33.74-.5,1.19-.45h5.3c.16,0,.31.04.45.11.17.08.32.19.44.32.14.14.26.31.35.49.1.2.14.42.14.63v30.54c.03.44-.14.87-.47,1.17-.33.27-.76.42-1.2.4h-5.02c-.44.04-.88-.1-1.19-.4-.26-.34-.38-.76-.35-1.18V4.18ZM132.39,11.92c-.01-.41.13-.8.39-1.13.3-.33.75-.51,1.21-.47h4.95c.19,0,.38.04.56.11.21.08.39.19.56.33.17.14.32.31.44.5.12.2.19.42.18.65v22.8c.03.44-.13.86-.45,1.18-.36.29-.83.43-1.3.4h-4.95c-1.07,0-1.6-.52-1.6-1.57V11.92ZM132.39,1.58c-.05-.44.09-.88.39-1.22.34-.26.77-.39,1.21-.36h5.02c.44-.02.87.11,1.22.36.34.32.51.77.47,1.22v3.99c0,.18-.04.36-.12.53-.08.2-.2.38-.34.55-.14.18-.32.33-.53.44-.21.12-.46.18-.7.17h-5.02c-1.07,0-1.6-.57-1.6-1.7V1.58ZM146.67,10.7c.17-.14.37-.24.6-.29.2-.04.39-.06.6-.06h3.26c.23,0,.46.04.67.13.18.09.35.21.48.36.13.15.24.33.31.51.08.19.16.39.23.59l.45,1.79c.27-.49.62-.93,1.05-1.3.54-.48,1.14-.9,1.8-1.22.79-.39,1.62-.7,2.48-.91,1.02-.25,2.08-.37,3.14-.36,1.52-.03,3.03.28,4.4.9,1.27.58,2.39,1.42,3.29,2.45.92,1.07,1.62,2.3,2.06,3.62.48,1.43.71,2.92.7,4.42v13.39c.03.42-.09.84-.36,1.18-.3.29-.71.43-1.13.4h-5c-.45.04-.9-.06-1.28-.3-.27-.33-.4-.74-.35-1.15v-13.31c0-.58-.14-1.15-.42-1.67-.28-.52-.66-.99-1.11-1.39-.46-.4-.99-.72-1.57-.95-.56-.23-1.17-.35-1.78-.35-.55,0-1.09.12-1.59.33-.55.22-1.05.53-1.49.91-.46.39-.85.86-1.15,1.37-.31.52-.49,1.11-.53,1.71v13.29c0,.24-.05.47-.14.7-.08.21-.23.4-.42.53-.16.1-.34.18-.53.23-.19.04-.38.07-.57.06h-4.89c-.49.04-.98-.11-1.34-.43-.29-.32-.43-.73-.41-1.14V11.86c0-.25.06-.49.18-.71.12-.21.29-.39.51-.51l-.13.06ZM200.6,33.18c-1.25,1.09-2.7,1.97-4.28,2.59-1.6.62-3.31.94-5.04.93-1.92.01-3.82-.34-5.6-1.02-1.72-.66-3.29-1.62-4.63-2.83-1.33-1.22-2.4-2.66-3.16-4.26-.79-1.68-1.19-3.5-1.17-5.34,0-1.18.15-2.35.47-3.49.3-1.1.74-2.16,1.32-3.16.57-.98,1.27-1.89,2.08-2.71.81-.82,1.73-1.53,2.74-2.12,1.03-.59,2.13-1.05,3.29-1.37,1.22-.33,2.48-.5,3.74-.49,1.18,0,2.35.15,3.48.45,1.11.29,2.17.72,3.17,1.27.99.55,1.9,1.2,2.71,1.96.81.75,1.52,1.59,2.12,2.5.59.91,1.05,1.88,1.37,2.9.32,1.03.49,2.1.49,3.18,0,.71-.01,1.29-.03,1.74,0,.38-.12.75-.34,1.07-.25.29-.61.49-1.01.55-.68.12-1.37.17-2.07.15h-15.58c.11.78.41,1.53.88,2.19.41.56.93,1.03,1.53,1.4.57.34,1.19.59,1.84.75.6.14,1.22.22,1.84.23.54,0,1.07-.05,1.6-.15.54-.1,1.07-.24,1.59-.41.49-.16.96-.36,1.41-.59.37-.19.72-.43,1.03-.71.19-.15.39-.28.6-.4.16-.09.34-.13.53-.13.21,0,.41.07.57.18.24.16.46.33.66.53l2.29,2.45c.14.14.24.3.31.48.04.14.06.29.06.44,0,.25-.08.5-.24.71-.16.2-.35.37-.57.52ZM190.19,16.16c-.56,0-1.12.11-1.63.32-.53.22-1.03.5-1.48.85-.46.36-.88.76-1.24,1.21-.35.42-.65.88-.9,1.37h11.06c-.29-.51-.62-1-.98-1.47-.35-.44-.75-.84-1.21-1.19-.47-.35-.99-.62-1.56-.8-.66-.2-1.35-.3-2.04-.29h0Z"/>
      <g>
        <path class="cls-3" d="M236.42.84c-.65-.53-1.39-.79-2.2-.79h-9.65c-.86,0-1.61.2-2.26.61-.65.4-1.12.99-1.42,1.77l-15.51,34h10.88l3.56-8.54h11.79l.95,8.54h10.49l-5.47-33.63c-.11-.77-.49-1.42-1.14-1.95ZM222.87,20.55l5.73-13.18c.03.23,2.19,13.18,2.19,13.18h-7.92Z"/>
        <polygon class="cls-3" points="251.34 .04 245.93 36.42 256.42 36.42 261.83 .04 251.34 .04"/>
      </g>
    </g>
    <g>
      <path class="cls-1" d="M150.8,66.69c-1.4-.51-2.45-1.18-3.16-2.03-.71-.85-1.06-1.79-1.06-2.83,0-.17.02-.42.07-.76.04-.19.14-.35.29-.48.15-.13.32-.19.52-.19h4.3c.27,0,.47.04.62.13.14.08.3.23.45.44.16.55.52,1.01,1.09,1.36.57.36,1.36.54,2.37.54,1.28,0,2.31-.19,3.09-.57s1.25-.9,1.41-1.56c.02-.08.03-.21.03-.38,0-.53-.35-.95-1.04-1.25-.7-.31-1.97-.67-3.83-1.1-2.17-.44-3.82-1.12-4.94-2.02-1.12-.9-1.68-2.08-1.68-3.54,0-.51.07-1.03.2-1.55.45-1.97,1.56-3.51,3.34-4.64s4.08-1.68,6.9-1.68c1.7,0,3.21.29,4.53.86,1.32.57,2.35,1.3,3.07,2.18.73.88,1.09,1.75,1.09,2.62,0,.25-.01.43-.03.54-.04.19-.14.35-.29.48-.15.13-.32.19-.52.19h-4.5c-.49,0-.83-.18-1.01-.54-.02-.49-.29-.9-.81-1.24-.52-.34-1.19-.51-2.02-.51-.99,0-1.8.17-2.44.51-.64.34-1.04.84-1.19,1.49-.02.11-.03.24-.03.41,0,.51.32.93.96,1.25s1.76.66,3.38,1c2.51.47,4.34,1.13,5.49,2s1.73,2.02,1.73,3.46c0,.49-.07,1.02-.2,1.59-.49,2.16-1.69,3.79-3.58,4.9s-4.42,1.67-7.58,1.67c-1.97,0-3.66-.25-5.06-.76Z"/>
      <path class="cls-1" d="M173.09,66.9c-.13-.16-.18-.34-.13-.56l3.73-16.45h-5.98c-.25,0-.43-.08-.55-.24-.12-.16-.16-.34-.12-.56l.77-3.4c.04-.23.17-.42.37-.57s.41-.22.64-.22h18.07c.25,0,.44.07.57.22.09.13.13.25.13.38,0,.06-.01.13-.03.19l-.77,3.4c-.04.23-.16.42-.35.57s-.41.22-.65.22h-5.95l-3.73,16.45c-.04.23-.17.42-.37.57s-.41.22-.64.22h-4.44c-.25,0-.44-.08-.57-.24Z"/>
      <path class="cls-1" d="M183.57,66.96c-.11-.12-.17-.26-.17-.43,0-.11.03-.22.1-.35l12.46-20.38c.36-.59.86-.89,1.51-.89h5.17c.65,0,1.02.3,1.11.89l3.29,20.38c.04.3-.01.53-.17.7-.16.17-.36.25-.61.25h-4.06c-.58,0-.92-.25-1.01-.76l-.57-3.14h-8.97l-2.02,3.24c-.34.44-.75.67-1.24.67h-4.37c-.2,0-.36-.06-.47-.17ZM200.3,58.66l-1.24-8.38-5.01,8.38h6.25Z"/>
      <path class="cls-1" d="M211.32,65.67c-1.64-1.19-2.45-2.88-2.45-5.08,0-.49.06-1.07.17-1.75.27-1.52.7-3.41,1.28-5.65.74-2.81,2.09-4.95,4.06-6.41,1.97-1.46,4.55-2.19,7.73-2.19,1.75,0,3.33.25,4.75.76,1.42.51,2.55,1.24,3.38,2.19.83.95,1.24,2.09,1.24,3.4,0,.47-.04.9-.13,1.3-.05.19-.14.35-.29.48-.15.13-.32.19-.52.19h-4.57c-.31,0-.54-.06-.69-.17-.15-.12-.23-.33-.25-.65.02-1.04-.26-1.78-.84-2.24-.58-.45-1.43-.68-2.55-.68-2.69,0-4.39,1.4-5.11,4.19-.47,1.74-.87,3.51-1.21,5.33-.09.44-.13.89-.13,1.33,0,1.9,1.07,2.86,3.22,2.86,1.1,0,2.05-.23,2.86-.68.81-.45,1.47-1.2,1.98-2.24.16-.32.33-.53.5-.65.18-.12.42-.17.74-.17h4.57c.2,0,.36.06.47.19.09.09.13.19.13.32,0,.04-.01.1-.03.16-.63,2.39-1.95,4.26-3.96,5.62-2.01,1.35-4.58,2.03-7.69,2.03-2.8,0-5.02-.59-6.65-1.78Z"/>
      <path class="cls-1" d="M230.83,66.9c-.12-.16-.16-.34-.12-.56l4.64-20.64c.04-.23.16-.42.35-.57s.4-.22.62-.22h4.27c.25,0,.44.07.57.22.11.11.17.24.17.41,0,.04-.01.1-.03.16l-1.58,6.92,7.46-7.11c.38-.4.86-.6,1.44-.6h4.97c.2,0,.36.06.47.18.11.12.17.26.17.43s-.07.32-.2.44l-10.31,10,6.35,10.13c.09.17.13.29.13.35,0,.19-.09.35-.27.49-.18.14-.37.21-.57.21h-4.7c-.58,0-.98-.21-1.21-.64l-5.04-7.94-1.78,7.78c-.05.23-.16.42-.34.57-.18.15-.39.22-.64.22h-4.27c-.25,0-.43-.08-.55-.24Z"/>
    </g>
  </g>
</svg>